<svg height="150pt" preserveAspectRatio="xMidYMid meet" viewBox="0 0 150 150" width="150pt" xmlns="http://www.w3.org/2000/svg"><g transform="matrix(.1 0 0 -.1 0 150)"><path d="m630 1204c-115-31-238-133-291-240-79-161-56-369 56-489l37-40-31 42c-174 233-96 559 164 683 58 28 83 34 162 38 51 3 90 9 87 13-8 14-123 9-184-7z"/><path d="m810 1150c-131-52-232-142-305-270-31-54-32-60-15-60 13 0 17 5 14 15-9 23 50 107 126 178 44 42 97 79 149 105 116 59 138 61 206 23 67-38 73-32 8 9-58 37-88 37-183 0z"/><path d="m931 1025c-40-19-79-35-86-35-19 0-143-108-150-130-3-10-19-20-37-24-43-9-30-17 15-9 20 3 34 10 31 15-8 12 120 136 138 135 7-1 43 13 79 31 86 42 161 52 192 26l22-19-19 23c-30 34-95 30-185-13z"/><path d="m751 983c-17-21-31-42-31-47 0-12 5-6 44 47 35 48 27 48-13 0z"/><path d="m885 950c-10-11-16-22-13-25s13 6 22 20c20 30 16 32-9 5z"/><path d="m1235 955c56-173 39-347-46-472-65-95-199-188-314-218-202-52-432 36-547 210-23 35-44 63-46 60-9-9 52-99 103-149 169-170 433-202 644-79 147 85 251 273 251 451 0 61-23 173-41 201-9 13-10 13-4-4z"/><path d="m955 926c-38-12-72-28-160-75-71-38-22-22 60 20 107 54 194 69 275 48 32-9 57-12 55-8-8 12-92 29-142 28-26 0-66-6-88-13z"/><path d="m728 823c7-3 16-2 19 1 4 3-2 6-13 5-11 0-14-3-6-6z"/><path d="m509 763c-13-16-12-17 4-4 9 7 17 15 17 17 0 8-8 3-21-13z"/><path d="m765 744c-65-23-160-117-204-203l-38-73-37 47c-20 26-36 52-36 58s-3 8-6 4c-8-8 38-86 64-110 21-19 42-16 42 7 0 36 66 139 121 190 104 97 228 114 309 43l25-22-20 24c-11 12-32 29-47 37-34 18-121 17-173-2z"/><path d="m1130 736c0-2 8-10 18-17 15-13 16-12 3 4s-21 21-21 13z"/><path d="m141 696c-9-11-9-16 1-22 7-4 10-4 6 1-4 4-3 14 3 22 6 7 9 13 6 13-2 0-10-6-16-14z"/><path d="m441 670c-1-40 17-93 43-125l25-30-24 49c-14 27-25 59-26 70 0 12-4 30-9 41-8 18-9 18-9-5z"/><path d="m1046 667c3-10 9-15 12-12s0 11-7 18c-10 9-11 8-5-6z"/><path d="m1061 624c0-11 3-14 6-6 3 7 2 16-1 19-3 4-6-2-5-13z"/><path d="m1072 575c-1-16 3-48 7-70 8-35 9-36 9-10 1 17-3 48-7 70-8 35-9 36-9 10z"/><path d="m266 567c3-10 9-15 12-12s0 11-7 18c-10 9-11 8-5-6z"/><path d="m171 494c0-11 3-14 6-6 3 7 2 16-1 19-3 4-6-2-5-13z"/><path d="m942 419c-25-64-24-91 1-42 15 27 33 103 26 103-2 0-15-28-27-61z"/><path d="m840 405c-19-20-49-45-67-58-32-21-42-37-25-37 13 0 89 68 112 101 28 39 21 37-20-6z"/><path d="m251 404c0-11 3-14 6-6 3 7 2 16-1 19-3 4-6-2-5-13z"/></g></svg>